<svg width="1200" height="620" viewBox="0 0 1200 620" fill="none" xmlns="http://www.w3.org/2000/svg">
  <defs>
    <linearGradient id="bg" x1="0" y1="0" x2="1200" y2="620" gradientUnits="userSpaceOnUse">
      <stop stop-color="#050814"/>
      <stop offset="0.48" stop-color="#090E1A"/>
      <stop offset="1" stop-color="#06131A"/>
    </linearGradient>
    <linearGradient id="cyanGreen" x1="120" y1="80" x2="1080" y2="560" gradientUnits="userSpaceOnUse">
      <stop stop-color="#22D3EE"/>
      <stop offset="0.46" stop-color="#8B5CF6"/>
      <stop offset="1" stop-color="#2DD4BF"/>
    </linearGradient>
    <linearGradient id="glow" x1="0" y1="0" x2="1" y2="1">
      <stop stop-color="#22D3EE" stop-opacity=".28"/>
      <stop offset=".55" stop-color="#8B5CF6" stop-opacity=".12"/>
      <stop offset="1" stop-color="#2DD4BF" stop-opacity=".22"/>
    </linearGradient>
    <filter id="softGlow" x="-50%" y="-50%" width="200%" height="200%">
      <feGaussianBlur stdDeviation="9" result="blur"/>
      <feMerge>
        <feMergeNode in="blur"/>
        <feMergeNode in="SourceGraphic"/>
      </feMerge>
    </filter>
    <filter id="tinyGlow" x="-50%" y="-50%" width="200%" height="200%">
      <feGaussianBlur stdDeviation="2.5" result="blur"/>
      <feMerge>
        <feMergeNode in="blur"/>
        <feMergeNode in="SourceGraphic"/>
      </feMerge>
    </filter>
    <pattern id="grid" width="28" height="28" patternUnits="userSpaceOnUse">
      <path d="M 28 0 L 0 0 0 28" fill="none" stroke="#203040" stroke-opacity=".16" stroke-width="1"/>
    </pattern>
    <style>
      .mono { font-family: 'JetBrains Mono', 'Fira Code', Consolas, monospace; }
      .sans { font-family: Inter, -apple-system, BlinkMacSystemFont, 'Segoe UI', sans-serif; }
      .muted { fill: #7E8CA5; }
      .white { fill: #F7FAFC; }
      .cyan { fill: #22D3EE; }
      .green { fill: #2DD4BF; }
      .violet { fill: #A78BFA; }
    </style>
  </defs>

  <rect width="1200" height="620" rx="34" fill="url(#bg)"/>
  <rect x="1" y="1" width="1198" height="618" rx="33" stroke="url(#cyanGreen)" stroke-opacity=".42" stroke-width="2"/>
  <rect width="1200" height="620" rx="34" fill="url(#grid)"/>
  <circle cx="1100" cy="50" r="180" fill="#22D3EE" fill-opacity=".035"/>
  <circle cx="95" cy="595" r="240" fill="#8B5CF6" fill-opacity=".035"/>

  <!-- LEFT TERMINAL -->
  <rect x="38" y="42" width="365" height="536" rx="22" fill="#070C15" fill-opacity=".94"/>
  <rect x="38.75" y="42.75" width="363.5" height="534.5" rx="21.25" stroke="#253149" stroke-width="1.5"/>
  <path d="M38 91H403" stroke="#1D293B"/>
  <circle cx="64" cy="67" r="6" fill="#FF5F57"/>
  <circle cx="85" cy="67" r="6" fill="#FEBB2E"/>
  <circle cx="106" cy="67" r="6" fill="#28C840"/>
  <text x="146" y="72" class="mono" font-size="12" fill="#6C83A5">kuldeep@engine:~</text>

  <text x="67" y="126" class="mono" font-size="14" fill="#7E8CA5">kuldeep@engine:~$</text>
  <text x="225" y="126" class="mono" font-size="14" font-weight="700" fill="#F7FAFC">neofetch</text>

  <!-- AI / SYSTEM ASCII-ish mark -->
  <g transform="translate(77,160)">
    <path d="M118 5 L205 54 L205 153 L118 202 L31 153 L31 54 Z" stroke="#2DD4BF" stroke-width="2.2" fill="#0A1719" fill-opacity=".56"/>
    <path d="M118 22 L187 62 L187 145 L118 184 L49 145 L49 62 Z" stroke="#22D3EE" stroke-opacity=".5" stroke-width="1.3"/>
    <circle cx="118" cy="103" r="49" stroke="#8B5CF6" stroke-width="1.5" stroke-dasharray="5 8"/>
    <circle cx="118" cy="103" r="30" fill="#09151A" stroke="#2DD4BF" stroke-width="2"/>
    <text x="84" y="111" class="mono" font-size="21" font-weight="800" fill="#2DD4BF">AI/SE</text>
    <g stroke="#22D3EE" stroke-width="2">
      <path d="M118 5V53"/>
      <path d="M205 54L164 77"/>
      <path d="M205 153L164 129"/>
      <path d="M118 202V153"/>
      <path d="M31 153L72 129"/>
      <path d="M31 54L72 77"/>
    </g>
    <g fill="#22D3EE" filter="url(#tinyGlow)">
      <circle cx="118" cy="5" r="4"/>
      <circle cx="205" cy="54" r="4"/>
      <circle cx="205" cy="153" r="4"/>
      <circle cx="118" cy="202" r="4"/>
      <circle cx="31" cy="153" r="4"/>
      <circle cx="31" cy="54" r="4"/>
    </g>
  </g>

  <text x="68" y="407" class="mono" font-size="12" fill="#50617E">OS</text>
  <text x="113" y="407" class="mono" font-size="12" fill="#DCE7F7">Build • Learn • Scale</text>
  <text x="68" y="431" class="mono" font-size="12" fill="#50617E">ROLE</text>
  <text x="113" y="431" class="mono" font-size="12" fill="#2DD4BF">AI + Software Engineering</text>
  <text x="68" y="455" class="mono" font-size="12" fill="#50617E">STACK</text>
  <text x="113" y="455" class="mono" font-size="12" fill="#DCE7F7">MERN • Python • Systems</text>
  <text x="68" y="479" class="mono" font-size="12" fill="#50617E">MODE</text>
  <text x="113" y="479" class="mono" font-size="12" fill="#A78BFA">production-minded</text>

  <rect x="67" y="514" width="270" height="1.5" fill="#143D43"/>
  <rect x="67" y="514" width="193" height="1.5" fill="#2DD4BF" filter="url(#tinyGlow)"/>
  <text x="68" y="540" class="mono" font-size="11" fill="#61718B">system status:</text>
  <text x="163" y="540" class="mono" font-size="11" font-weight="700" fill="#2DD4BF">ONLINE ●</text>

  <!-- RIGHT TERMINAL -->
  <rect x="435" y="42" width="727" height="536" rx="22" fill="#080D17" fill-opacity=".96"/>
  <rect x="435.75" y="42.75" width="725.5" height="534.5" rx="21.25" stroke="#253149" stroke-width="1.5"/>
  <path d="M435 91H1162" stroke="#1D293B"/>
  <circle cx="461" cy="67" r="6" fill="#FF5F57"/>
  <circle cx="482" cy="67" r="6" fill="#FEBB2E"/>
  <circle cx="503" cy="67" r="6" fill="#28C840"/>
  <text x="746" y="72" class="mono" font-size="12" fill="#6C83A5">kuldeep@terminal:~</text>

  <text x="482" y="129" class="mono" font-size="14" fill="#77A3BF">const</text>
  <text x="530" y="129" class="mono" font-size="14" fill="#A78BFA"> developer</text>
  <text x="611" y="129" class="mono" font-size="14" fill="#DCE7F7"> = </text>
  <text x="641" y="129" class="mono" font-size="14" fill="#2DD4BF">"Kuldeep Jhorar"</text>
  <text x="782" y="129" class="mono" font-size="14" fill="#DCE7F7">;</text>

  <text x="481" y="178" class="sans" font-size="31" font-weight="800" fill="#F7FAFC">I'm </text>
  <text x="542" y="178" class="sans" font-size="31" font-weight="800" fill="#2DD4BF">Kuldeep Jhorar</text>

  <text x="482" y="220" class="mono" font-size="18" fill="#70849F">$</text>
  <text x="511" y="220" class="mono" font-size="18" font-weight="700" fill="#22D3EE">AI Engineer</text>
  <text x="633" y="220" class="mono" font-size="18" fill="#61718B"> / </text>
  <text x="666" y="220" class="mono" font-size="18" font-weight="700" fill="#2DD4BF">Software Engineer</text>
  <rect x="847" y="202" width="7" height="22" rx="1" fill="#2DD4BF" filter="url(#tinyGlow)"/>

  <path d="M481 248H1114" stroke="#1D293B"/>

  <!-- info rows -->
  <circle cx="490" cy="282" r="7" stroke="#6F819D"/>
  <path d="M490 278V285M487 282H493" stroke="#6F819D" stroke-width="1.2"/>
  <text x="514" y="287" class="sans" font-size="13" fill="#71839F">Location:</text>
  <text x="576" y="287" class="sans" font-size="13" font-weight="700" fill="#F7FAFC">Punjab, India</text>

  <path d="M483 317L490 313L497 317L490 321Z" stroke="#6F819D" fill="none"/>
  <path d="M486 319V324H494V319" stroke="#6F819D"/>
  <text x="514" y="322" class="sans" font-size="13" fill="#71839F">Education:</text>
  <text x="580" y="322" class="sans" font-size="13" font-weight="700" fill="#F7FAFC">B.Tech — AI &amp; Data Science</text>

  <path d="M483 350L490 345L497 350L490 355Z" stroke="#6F819D" fill="none"/>
  <text x="514" y="357" class="sans" font-size="13" fill="#71839F">Focus:</text>
  <text x="557" y="357" class="sans" font-size="13" font-weight="700" fill="#F7FAFC">AI/ML • Backend • Full Stack • System Design</text>

  <circle cx="490" cy="386" r="6" stroke="#6F819D"/>
  <path d="M484 386H496M490 380C487 383 487 389 490 392M490 380C493 383 493 389 490 392" stroke="#6F819D" stroke-width="1"/>
  <text x="514" y="391" class="sans" font-size="13" fill="#71839F">GitHub:</text>
  <text x="561" y="391" class="sans" font-size="13" font-weight="700" fill="#2DD4BF">github.com/kuldeepjhorar40</text>

  <rect x="482" y="421" width="633" height="1" fill="#162235"/>
  <text x="482" y="452" class="sans" font-size="13" font-weight="800" fill="#F7FAFC">Skills &amp; Technologies</text>

  <!-- chips -->
  <g class="sans" font-size="11" font-weight="600">
    <g>
      <rect x="482" y="469" width="73" height="31" rx="9" fill="#081820" stroke="#164C54"/>
      <text x="503" y="489" fill="#2DD4BF">React</text>
    </g>
    <g>
      <rect x="563" y="469" width="82" height="31" rx="9" fill="#0B1020" stroke="#283149"/>
      <text x="583" y="489" fill="#F7FAFC">Node.js</text>
    </g>
    <g>
      <rect x="653" y="469" width="82" height="31" rx="9" fill="#0C1420" stroke="#26364A"/>
      <text x="672" y="489" fill="#22D3EE">Python</text>
    </g>
    <g>
      <rect x="743" y="469" width="75" height="31" rx="9" fill="#0B1020" stroke="#332957"/>
      <text x="764" y="489" fill="#A78BFA">Django</text>
    </g>
    <g>
      <rect x="826" y="469" width="68" height="31" rx="9" fill="#081820" stroke="#164C54"/>
      <text x="842" y="489" fill="#2DD4BF">Redis</text>
    </g>
    <g>
      <rect x="902" y="469" width="91" height="31" rx="9" fill="#0C1420" stroke="#26364A"/>
      <text x="921" y="489" fill="#22D3EE">MongoDB</text>
    </g>
    <g>
      <rect x="1001" y="469" width="81" height="31" rx="9" fill="#0B1020" stroke="#283149"/>
      <text x="1019" y="489" fill="#F7FAFC">Docker</text>
    </g>

    <g>
      <rect x="482" y="510" width="84" height="31" rx="9" fill="#0B1020" stroke="#283149"/>
      <text x="501" y="530" fill="#F7FAFC">C++ / DSA</text>
    </g>
    <g>
      <rect x="574" y="510" width="83" height="31" rx="9" fill="#0C1420" stroke="#26364A"/>
      <text x="594" y="530" fill="#22D3EE">Postgres</text>
    </g>
    <g>
      <rect x="665" y="510" width="76" height="31" rx="9" fill="#081820" stroke="#164C54"/>
      <text x="686" y="530" fill="#2DD4BF">Celery</text>
    </g>
    <g>
      <rect x="749" y="510" width="92" height="31" rx="9" fill="#0B1020" stroke="#332957"/>
      <text x="770" y="530" fill="#A78BFA">System Design</text>
    </g>
    <g>
      <rect x="849" y="510" width="77" height="31" rx="9" fill="#0C1420" stroke="#26364A"/>
      <text x="868" y="530" fill="#22D3EE">AWS</text>
    </g>
    <g>
      <rect x="934" y="510" width="91" height="31" rx="9" fill="#081820" stroke="#164C54"/>
      <text x="954" y="530" fill="#2DD4BF">Git/GitHub</text>
    </g>
  </g>

  <path d="M435 557C510 553 510 566 590 562C670 558 663 571 746 565C829 559 837 572 918 565C999 558 1058 568 1162 560" stroke="url(#cyanGreen)" stroke-opacity=".28" stroke-width="2"/>
</svg>
